<?xml version="1.0" encoding="UTF-8"?>
<svg xmlns="http://www.w3.org/2000/svg" xmlns:xlink="http://www.w3.org/1999/xlink" width="57.091pt" height="27.364pt" viewBox="0 0 57.091 27.364" version="1.1">
<defs>
<clipPath id="clip1">
  <path d="M 0 14 L 57.089844 14 L 57.089844 15 L 0 15 Z M 0 14 "/>
</clipPath>
<clipPath id="clip2">
  <path d="M 21 1 L 36 1 L 36 27.363281 L 21 27.363281 Z M 21 1 "/>
</clipPath>
</defs>
<g id="surface1">
<g clip-path="url(#clip1)" clip-rule="nonzero">
<path style="fill:none;stroke-width:0.3985;stroke-linecap:butt;stroke-linejoin:miter;stroke:rgb(0%,0%,0%);stroke-opacity:1;stroke-miterlimit:10;" d="M 0.00021875 -0.0019375 L 11.340063 -0.0019375 M 45.355688 -0.0019375 L 56.695531 -0.0019375 " transform="matrix(1,0,0,-1,0.199,14.209)"/>
</g>
<path style="fill:none;stroke-width:0.797;stroke-linecap:butt;stroke-linejoin:bevel;stroke:rgb(0%,0%,0%);stroke-opacity:1;stroke-miterlimit:10;" d="M 10.941625 -0.0019375 L 14.172094 6.376969 L 19.843969 -6.376938 L 25.511937 6.376969 L 31.179906 -6.376938 L 36.851781 6.376969 L 42.51975 -6.376938 L 45.754125 -0.0019375 " transform="matrix(1,0,0,-1,0.199,14.209)"/>
<g clip-path="url(#clip2)" clip-rule="nonzero">
<path style="fill:none;stroke-width:0.797;stroke-linecap:butt;stroke-linejoin:bevel;stroke:rgb(0%,0%,0%);stroke-opacity:1;stroke-miterlimit:10;" d="M 21.543187 -12.755844 L 34.867406 12.228531 " transform="matrix(1,0,0,-1,0.199,14.209)"/>
</g>
<path style="fill:none;stroke-width:0.797;stroke-linecap:butt;stroke-linejoin:miter;stroke:rgb(0%,0%,0%);stroke-opacity:1;stroke-miterlimit:10;" d="M 0.0000943196 3.087286 L 0.0000906865 -3.088728 " transform="matrix(0.47057,-0.88232,-0.88232,-0.47057,35.16143,1.80443)"/>
</g>
</svg>
