<?xml version="1.0" encoding="UTF-8" standalone="no"?>
<!-- Created with Inkscape (http://www.inkscape.org/) -->

<svg
   width="1023.9999"
   height="1023.9999"
   viewBox="0 0 270.93331 270.93332"
   version="1.1"
   id="svg1"
   xml:space="preserve"
   inkscape:version="1.3 (0e150ed6c4, 2023-07-21)"
   sodipodi:docname="lcapy-gui.svg"
   xmlns:inkscape="http://www.inkscape.org/namespaces/inkscape"
   xmlns:sodipodi="http://sodipodi.sourceforge.net/DTD/sodipodi-0.dtd"
   xmlns:xlink="http://www.w3.org/1999/xlink"
   xmlns="http://www.w3.org/2000/svg"
   xmlns:svg="http://www.w3.org/2000/svg"><sodipodi:namedview
     id="namedview1"
     pagecolor="#ffffff"
     bordercolor="#000000"
     borderopacity="0.25"
     inkscape:showpageshadow="2"
     inkscape:pageopacity="0.0"
     inkscape:pagecheckerboard="0"
     inkscape:deskcolor="#d1d1d1"
     inkscape:document-units="px"
     inkscape:zoom="0.51669473"
     inkscape:cx="-119.02579"
     inkscape:cy="330.94977"
     inkscape:window-width="2560"
     inkscape:window-height="1364"
     inkscape:window-x="0"
     inkscape:window-y="0"
     inkscape:window-maximized="1"
     inkscape:current-layer="layer1" /><defs
     id="defs1"><linearGradient
       id="linearGradient51"
       inkscape:collect="always"><stop
         style="stop-color:#bc2e41;stop-opacity:1;"
         offset="0"
         id="stop51" /><stop
         style="stop-color:#c13043;stop-opacity:1;"
         offset="1"
         id="stop52" /></linearGradient><linearGradient
       id="linearGradient49"
       inkscape:collect="always"><stop
         style="stop-color:#d4aa00;stop-opacity:1;"
         offset="0"
         id="stop49" /><stop
         style="stop-color:#ffe995;stop-opacity:1;"
         offset="1"
         id="stop50" /></linearGradient><linearGradient
       id="swatch40"
       inkscape:swatch="solid"><stop
         style="stop-color:#f2daa9;stop-opacity:1;"
         offset="0"
         id="stop40" /></linearGradient><linearGradient
       id="linearGradient38"
       inkscape:swatch="gradient"><stop
         style="stop-color:#f0ce92;stop-opacity:1;"
         offset="0"
         id="stop38" /><stop
         style="stop-color:#e9dfae;stop-opacity:1;"
         offset="1"
         id="stop39" /></linearGradient><linearGradient
       inkscape:collect="always"
       xlink:href="#linearGradient49"
       id="linearGradient50"
       x1="118.15007"
       y1="105.22369"
       x2="123.27776"
       y2="105.22369"
       gradientUnits="userSpaceOnUse"
       spreadMethod="reflect" /><linearGradient
       inkscape:collect="always"
       xlink:href="#linearGradient51"
       id="linearGradient52"
       x1="129.41338"
       y1="111.27274"
       x2="134.54107"
       y2="111.27274"
       gradientUnits="userSpaceOnUse" /></defs><g
     inkscape:label="Layer 1"
     inkscape:groupmode="layer"
     id="layer1"
     transform="translate(30.492521,-12.905323)"><g
       id="g54"
       transform="matrix(1.2747471,0,0,1.2747471,-67.711328,-23.639195)"
       inkscape:label="Elca the Python"><g
         id="g53"
         inkscape:label="Resistor"><path
           style="fill:#366a96;fill-opacity:1;stroke-width:0.0905219"
           d="m 122.87691,88.878527 c -1.26915,0.22816 -2.38106,0.985404 -3.44001,1.686146 -2.46343,1.880517 -4.19217,4.588605 -5.21809,7.485911 -0.4616,1.899778 -0.53259,3.902666 -0.2827,5.838726 0.25475,1.51932 0.98486,3.0609 2.39334,3.81918 0.78138,0.43748 1.55876,0.93372 2.40206,1.22713 6.07498,3.90287 -11.38977,-6.72124 6.66328,3.65798 1.01618,0.49685 1.97455,1.17508 3.07732,1.45885 l 7.33283,3.84526 c 6.51076,3.66046 -4.6653,-2.57191 12.3504,6.31715 0.85773,0.33493 1.65202,1.05865 2.61963,0.95798 0.93664,-0.1378 1.33179,-1.19888 1.08005,-2.02833 -0.319,-1.83264 -0.18046,-3.66597 0.006,-5.51922 0.30318,-2.31476 1.6942,-4.29028 3.0933,-6.0866 1.04781,-1.1743 2.26854,-2.24928 3.68205,-2.95521 0.77514,-0.0913 1.58441,-0.62837 1.5467,-1.48781 -0.0471,-1.16037 -1.32206,-1.57682 -2.16687,-2.07657 -1.5593,-0.82642 -3.27745,-1.28195 -4.8382,-2.10915 -5.70282,-2.72089 -11.3656,-5.522819 -17.07121,-8.235949 -0.72455,-0.46284 -1.73536,-0.285487 -2.19223,0.46658 -0.79054,0.892821 -1.47734,2.12848 -2.72824,2.392154 -0.70651,0.114332 -1.46511,-0.154554 -1.787,-0.829501 -1.21655,-1.881706 -1.72298,-4.144498 -3.01879,-5.975904 -0.69008,-0.820011 -1.75303,-1.1567 -2.65113,-1.6865 -0.26971,-0.108631 -0.55937,-0.180412 -0.852,-0.162303 z"
           id="path34"
           sodipodi:nodetypes="ccccccccccccccccccccccccsc"
           transform="translate(30.492522,-12.905323)"
           inkscape:label="background" /><g
           id="g52"
           inkscape:label="Colour Bands"><path
             style="fill:url(#linearGradient50);fill-opacity:1"
             d="m 118.73151,108.93562 c -0.85277,-1.37112 -0.74513,-4.82496 0.17618,-6.99509 2.09865,-4.94333 4.91076,-2.04918 3.90901,-0.56155 -1.59111,2.36285 -1.57983,5.20926 -1.11912,7.96074 0.1441,0.86063 0.83177,1.52225 1.58018,1.93302 z"
             id="path8-7-9"
             sodipodi:nodetypes="cssscc"
             transform="translate(30.492522,-12.905323)"
             inkscape:label="gold" /><path
             style="fill:url(#linearGradient52);fill-opacity:1"
             d="m 129.99482,114.98467 c -0.85277,-1.37112 -0.74513,-4.82496 0.17618,-6.99509 2.09865,-4.94333 4.91076,-2.04918 3.90901,-0.56155 -1.59111,2.36285 -1.57983,5.20926 -1.11912,7.96074 0.1441,0.86063 0.83177,1.52225 1.58018,1.93302 z"
             id="path8-7-9-4"
             sodipodi:nodetypes="cssscc"
             transform="translate(30.492522,-12.905323)"
             inkscape:label="red" /><path
             style="fill:#171717"
             d="m 138.36255,118.98397 c -0.85277,-1.37112 -0.74513,-4.82496 0.17618,-6.99509 2.09865,-4.94333 4.91076,-2.04918 3.90901,-0.56155 -1.59111,2.36285 -1.57983,5.20926 -1.11912,7.96074 0.1441,0.86063 0.83177,1.52225 1.58018,1.93302 z"
             id="path8-7-9-5"
             sodipodi:nodetypes="cssscc"
             transform="translate(30.492522,-12.905323)"
             inkscape:label="black" /><path
             style="fill:#623b32;fill-opacity:1"
             d="m 142.9088,121.32109 c -0.85277,-1.37112 -0.74513,-4.82496 0.17618,-6.99509 2.09865,-4.94333 4.91076,-2.04918 3.90901,-0.56155 -1.59111,2.36285 -1.57983,5.20926 -1.11912,7.96074 0.1441,0.86063 0.83177,1.52225 1.58018,1.93302 z"
             id="path8-7-9-1"
             sodipodi:nodetypes="cssscc"
             transform="translate(30.492522,-12.905323)"
             inkscape:label="brown" /></g></g><g
         id="g38"
         style="fill:#fec937;fill-opacity:1"
         inkscape:label="Skin"
         transform="translate(30.492522,-12.905323)"><path
           style="fill:#fec937;fill-opacity:1;stroke-width:0.0905219"
           d="m 44.271746,112.98209 c -0.988642,0.51299 -0.797507,1.74737 -0.974752,2.67723 -0.509825,4.90479 -0.590735,9.89063 0.27948,14.76096 2.14966,12.6981 8.22915,24.63303 16.930741,34.0944 4.374224,4.83901 9.368738,9.05309 14.370078,13.22024 5.023935,4.29263 10.083234,8.55396 14.516238,13.45149 2.632964,2.9739 4.876557,6.31615 6.369249,10.04337 0.774962,1.96979 1.395563,4.15401 1.354529,6.3294 0.139613,2.16408 -0.407202,4.3404 -1.531374,6.19352 -0.892463,1.55005 -2.300187,2.72629 -3.665231,3.84695 -3.642363,2.56088 -8.174607,3.53618 -12.534038,3.71975 -3.104886,0.11068 -6.281103,0.10752 -9.296374,-0.73262 -0.765096,-0.27779 -1.769375,-0.54015 -2.10394,-1.36384 -0.134911,-0.57588 0.06339,-1.14114 0.443256,-1.57352 0.59899,-0.90153 -0.188304,-2.20588 -1.257935,-2.1133 -3.021463,0.0638 -6.002417,0.20281 -9.003586,0.10679 -6.018795,-0.14588 -12.01182,-0.43252 -17.908166,-1.81867 -2.766298,-0.68668 -5.621152,-1.33262 -8.085217,-2.82412 -2.148999,-1.39869 -3.8735,-3.55739 -4.377928,-6.11111 -0.391663,-1.85269 -0.385736,-3.77757 -0.245375,-5.65928 0.300302,-3.10075 1.822186,-5.9747 3.938244,-8.2234 2.65766,-2.90401 6.107033,-4.94712 9.646444,-6.54999 4.174067,-1.87969 8.617083,-3.10911 13.109682,-3.94882 2.437262,-0.50898 4.888521,-0.89456 7.347665,-1.36473 0.975175,-0.25434 1.282991,-1.57511 0.588036,-2.27577 -1.76186,-1.96334 -3.65125,-3.81867 -5.626682,-5.56674 -1.055344,-0.91589 -2.523041,-1.10711 -3.859028,-0.85413 -6.973041,1.12406 -13.869935,2.79993 -20.537383,5.13931 -6.990133,2.54471 -13.760186,6.09484 -19.143028,11.30365 -3.8318023,3.72731 -6.9149656,8.55919 -7.4466459,13.97964 -0.4538663,4.16434 0.8908257,8.60176 4.001003,11.4908 0.30607,0.25328 0.5973499,0.55642 0.4837379,0.9936 -0.084032,3.53982 1.455341,7.06368 4.107762,9.40987 2.316533,2.29371 5.394431,3.53379 8.312574,4.86075 3.558858,1.5414 7.218469,2.85326 10.924726,3.98741 1.152313,0.13987 1.624542,-1.10224 2.29317,-1.79709 1.054365,-1.33686 2.558071,-2.37226 4.284081,-2.5463 2.468668,-0.42353 5.210784,0.28587 6.863848,2.24547 1.200705,1.19227 1.797288,2.80406 2.293461,4.38324 0.471673,0.9775 1.690344,0.89683 2.579635,1.19917 8.444389,1.94732 17.091608,2.8374 25.7211,3.47176 5.758461,0.0641 11.530794,0.0869 17.273866,-0.3952 7.520601,-0.7856 15.086881,-2.86449 21.346381,-7.23862 3.70043,-2.59375 6.99028,-5.85317 9.37018,-9.70998 1.67072,-2.76917 3.22723,-5.69518 3.75438,-8.92455 0.62057,-3.44214 0.72534,-6.98529 0.31859,-10.45828 -0.91484,-5.26996 -3.16234,-10.23753 -6.04315,-14.71521 -3.90349,-5.88172 -9.27876,-10.59761 -14.81454,-14.89729 -6.76873,-5.23935 -14.005234,-9.8506 -20.897953,-14.86482 -5.380815,-3.93444 -10.624672,-8.21095 -14.725555,-13.50999 -2.630647,-3.50737 -4.618118,-7.502 -5.873274,-11.70036 -0.696066,-2.35447 -1.009359,-4.838 -0.996474,-7.25867 -0.03916,-2.08696 -0.02918,-4.08031 0.2091,-6.21386 0.12282,-1.49127 0.589439,-2.90374 0.862859,-4.35349 0.154702,-0.95728 -0.866166,-1.62917 -1.741726,-1.46347 -6.9147,0.0128 -13.834878,-0.0256 -20.746192,0.0191 -0.15285,0.0331 -0.305699,0.0662 -0.458549,0.0993 z m -30.306621,83.49104 c 0.434843,0.16523 0.610765,0.53509 0.473314,0.97029 -0.109273,0.65137 -0.144886,1.46353 -0.658416,1.93225 -0.441352,-0.0918 -0.663469,-0.50271 -0.584491,-0.93139 -0.03297,-0.71551 0.133535,-1.57332 0.769593,-1.97115 z m 3.844714,22.59652 c 0.625078,0.0299 1.010047,0.67921 1.373029,1.10147 0.05122,0.29633 -0.20447,0.46692 -0.468683,0.33999 -0.617273,-0.11031 -1.117336,-0.74143 -1.1439,-1.32247 0.06165,-0.0838 0.127159,-0.14834 0.239554,-0.11899 z m 30.807847,0.18211 c 1.605148,0.10586 3.068691,0.87802 4.533318,1.48093 0.720355,0.36635 1.546596,0.64281 2.106057,1.24021 0.154094,0.54427 -0.552582,0.68917 -0.940038,0.66017 -0.857197,-0.0383 -1.612873,-0.56368 -2.414931,-0.8274 -1.265608,-0.59199 -2.654301,-1.01717 -3.759121,-1.89091 -0.07956,-0.2562 -0.121629,-0.77805 0.297206,-0.66123 0.05914,-0.003 0.118348,-0.003 0.177509,-0.002 z m 26.279794,10.24135 c 0.877861,0.0652 1.833431,-0.0247 2.647077,0.34971 0.434261,0.17933 -0.05506,0.51887 -0.239395,0.69359 -1.886691,0.0923 -3.707209,0.12186 -5.595726,-0.0834 -0.288131,-0.0514 -0.390102,-0.53182 -0.285538,-0.7507 1.134586,-0.23371 2.319867,-0.1983 3.473582,-0.20915 z"
           id="path14" /><path
           style="fill:#fec937;fill-opacity:1;stroke-width:0.0905219"
           d="m 150.13106,176.97292 c -1.52955,0.0388 -3.07731,-0.0102 -4.5935,0.15558 -0.98149,0.16493 -1.30666,1.47585 -0.67764,2.19158 1.86568,2.89517 3.61632,5.87052 5.16276,8.94089 0.34191,0.78843 1.12974,1.31332 1.99553,1.27617 3.91616,0.28568 7.75818,0.58828 11.66047,1.20721 1.16528,0.11736 2.31894,0.48501 3.49259,0.41204 1.1305,-0.60868 2.10217,-1.70499 3.4828,-1.72611 2.38527,-0.14223 4.66852,0.77355 6.85829,1.60228 2.17735,0.89835 4.42767,2.0237 5.76155,4.04986 0.53801,1.02579 0.51309,2.30021 0.19342,3.39015 -0.84529,1.70534 -2.76977,2.44126 -4.4681,3.01586 -1.95061,0.6626 -3.99554,0.93325 -6.01334,0.52227 -0.80691,-0.25178 -1.70411,-0.64938 -2.14282,-1.39725 0.0408,-1.02149 -0.96345,-1.80987 -1.94658,-1.6522 -2.2933,0.2422 -4.5435,0.81853 -6.85208,0.95207 -2.53947,0.25145 -5.10197,0.20448 -7.63797,0.46249 -0.8309,0.1965 -1.1269,1.09376 -1.05883,1.86064 -0.15591,3.04894 0.0278,6.12123 -0.37576,9.15367 -0.26884,1.82724 -0.84689,3.62973 -1.062,5.48314 5.3e-4,0.98953 1.02393,1.67963 1.9585,1.47909 6.612,-0.44707 13.26972,-0.72524 19.84613,-1.70239 6.79207,-1.0006 13.61124,-2.36525 19.94596,-5.08791 3.95205,-1.70047 7.76072,-4.31539 9.7979,-8.2135 1.50906,-2.80259 1.50394,-6.37649 -0.11616,-9.13263 -2.13269,-3.69628 -5.57806,-6.45294 -9.2426,-8.53717 -6.11152,-3.42301 -12.88457,-5.54028 -19.77817,-6.6793 -7.75748,-1.31049 -15.62688,-1.92688 -23.49056,-2.02582 -0.23326,-0.002 -0.46653,-5.3e-4 -0.69979,-8e-4 z m 9.18161,7.6636 c 0.36387,-0.0867 0.60676,0.29426 0.42078,0.59069 -0.35197,0.35056 -0.92343,-0.0626 -0.99079,-0.39869 0.14917,-0.16316 0.35575,-0.2098 0.57001,-0.192 z m 37.26353,18.4143 c 0.37127,0.006 0.0252,0.49736 0.004,0.67184 -0.48083,1.08104 -1.40738,1.94866 -2.42694,2.52065 -0.34025,-0.0526 -0.32999,-0.3036 -0.14497,-0.53111 0.6344,-0.99422 1.42857,-1.93109 2.36841,-2.64282 0.0653,-0.0149 0.13261,-0.0237 0.19961,-0.0186 z m -16.30719,5.6981 c 0.52531,-0.0969 0.16267,0.24961 -0.0645,0.39162 -1.26417,0.86939 -2.88523,1.1483 -4.37935,0.94641 -0.42506,-0.15753 0.17224,-0.36648 0.33098,-0.47683 1.27033,-0.6099 2.70976,-0.86642 4.11291,-0.8612 z"
           id="path20" /><path
           style="fill:#fec937;fill-opacity:1;stroke-width:0.0905219"
           d="m 100.70789,53.021084 c -3.645109,-0.0068 -7.368717,0.118459 -10.83133,1.380103 -7.739841,2.762606 -14.620067,7.416184 -21.129425,12.344744 -6.277823,4.836804 -12.24505,10.123971 -17.482636,16.083267 -4.662171,5.353245 -7.618784,12.287559 -7.835028,19.414212 -0.0268,2.20597 0.177139,4.54431 1.354482,6.46312 -0.311044,1.39747 -0.915512,2.75253 -1.008909,4.18946 0.05805,0.88328 0.992267,1.36203 1.801124,1.23713 6.956346,0.0175 13.918222,0.0413 20.871208,0.003 1.048041,-0.0523 1.284235,-1.2045 1.57734,-2.0047 0.995495,-2.80938 2.467452,-5.42892 4.255241,-7.80851 0.615765,-0.69932 0.813647,-1.7992 0.17698,-2.55324 -0.957606,-1.11872 -2.003187,-2.173689 -2.781962,-3.435235 -1.371123,-2.168216 -2.636652,-4.474044 -3.206326,-6.994952 -0.378381,-2.132386 -0.307367,-4.330911 -0.0408,-6.472651 0.32631,-1.765159 1.306512,-3.348612 2.417577,-4.72853 0.405818,-0.607794 1.324187,-1.029976 1.965484,-0.538534 0.387906,0.54674 -0.220504,1.145672 -0.484055,1.609768 -1.252855,1.755308 -2.226495,3.843721 -2.093357,6.048876 -0.08969,1.818236 0.168195,3.640854 0.801343,5.350374 1.559058,4.594393 5.196338,8.139814 9.214751,10.682614 3.748087,2.44831 7.940638,4.06477 12.07261,5.72938 3.601408,1.4432 7.031263,3.19703 10.233878,5.38148 5.97917,4.05656 11.52164,8.71579 17.46859,12.81653 3.33329,2.29376 7.28782,3.70197 11.3241,3.99601 2.65996,0.14187 5.53679,0.0255 7.79965,-1.55715 1.62398,-1.12563 2.76981,-2.95168 2.92775,-4.9373 0.16647,-0.80432 0.18473,-1.8561 -0.68669,-2.26423 -0.96186,-0.37471 -1.91172,0.29435 -2.83546,0.51281 -2.2882,0.81326 -4.78047,0.82493 -7.16378,0.53253 -2.92185,-0.44055 -5.63959,-1.75726 -7.98195,-3.53002 -4.19451,-3.13763 -7.92847,-6.87191 -11.69489,-10.5205 -4.62398,-4.59199 -9.28007,-9.17234 -13.710213,-13.933007 -0.741529,-0.738731 -1.378143,-1.85029 -2.565336,-1.842015 -2.721428,-0.209597 -5.584458,-0.158209 -8.084379,-1.440218 -0.369821,-0.262609 -1.008391,-0.516336 -1.036053,-1.03163 0.06142,-0.481783 0.562504,-0.619517 0.977882,-0.533581 1.799159,-0.05292 3.426381,0.976097 5.227923,0.965193 4.890077,0.187453 9.689006,-0.956635 14.471296,-1.80573 7.51776,-1.412613 15.0049,-3.04397 22.52565,-4.367541 3.30938,-0.58205 6.71878,-0.592348 10.10579,-1.051725 4.06841,-0.561986 8.08462,-1.448765 12.10256,-2.28887 1.4207,-0.222309 2.8167,-0.959147 3.51688,-2.261267 1.35921,-2.158524 1.50113,-4.828051 1.15504,-7.2909 -0.6749,-4.160722 -3.37787,-7.909204 -7.10509,-9.874663 -3.6587,-1.896968 -7.78234,-2.578781 -11.79351,-3.320922 -4.93381,-0.898539 -9.92329,-1.342747 -14.79557,-2.443908 -4.58023,-1.040395 -8.95048,-3.149774 -13.67564,-3.694881 -2.09892,-0.227809 -4.21454,-0.208908 -6.32274,-0.213752 z m 2.23034,9.487469 c 2.15533,5.82e-4 4.16608,0.91885 6.13522,1.693069 2.62718,1.11225 5.34697,2.005403 8.14971,2.553047 0.5762,0.167573 1.23318,0.196071 1.75459,0.493552 0.40482,0.43616 -0.0383,1.13301 -0.60006,1.080781 -1.17716,0.207237 -2.36607,-0.0609 -3.53142,0.206857 -0.7929,0.37259 -0.83342,1.299599 -0.77756,2.06008 -0.0734,3.143169 -2.16071,5.967048 -4.89563,7.390977 -1.16939,0.672526 -2.49843,1.046653 -3.85173,0.976739 -1.59485,0.05298 -3.29764,0.02997 -4.76551,-0.755393 -2.131193,-0.921846 -3.955969,-2.63117 -4.752396,-4.841683 -0.481624,-1.117458 -0.650455,-2.328556 -0.574763,-3.539192 -0.134802,-1.623868 0.549479,-3.271816 1.517463,-4.580371 1.427501,-1.897683 3.842366,-2.897781 6.192086,-2.738463 z m 28.52411,10.004611 c 1.14208,-3.97e-4 2.06356,0.874018 2.39335,1.924296 0.36493,0.651303 0.16153,1.398625 -0.28996,1.942331 -0.67627,1.018819 -2.13253,1.669468 -3.25365,0.969043 -1.4575,-0.533907 -1.71913,-2.505132 -1.00087,-3.719882 0.44636,-0.718941 1.30962,-1.156545 2.15113,-1.115788 z M 55.302676,87.766805 c 0.460719,-0.051 0.884184,0.344233 0.732843,0.820178 -0.156475,1.630005 -0.975175,3.106166 -1.685423,4.554027 -1.15996,2.09049 -2.422446,4.202812 -4.223597,5.807898 -0.34462,0.285163 -0.924877,0.534685 -1.344401,0.331323 -0.18669,-0.577911 -0.06035,-1.254096 0.0061,-1.858349 0.595868,-2.479822 1.835758,-4.729064 3.26181,-6.797804 0.802322,-1.056558 1.606603,-2.230015 2.815881,-2.846311 0.144806,-0.0157 0.291306,-0.01131 0.436695,-0.01096 z"
           id="path29" /><path
           style="fill:#fec937;fill-opacity:1;stroke:none;stroke-width:0.483845;stroke-opacity:1"
           d="m 308.83089,662.73965 c -15.50407,4.3987 -30.74473,10.89833 -43.26595,21.25524 -8.21085,6.7087 -16.55289,15.80446 -16.27341,27.12167 0.63799,10.3378 9.98657,17.31306 18.85639,20.87223 13.61826,5.1877 28.12166,7.76526 42.55408,9.42571 18.52576,0.94914 37.10393,-0.0233 55.60245,-1.13779 16.90273,-1.45053 34.12226,-4.92639 48.96518,-13.47613 8.6622,-4.9995 16.72285,-13.89962 15.78024,-24.56427 -0.95154,-9.29916 -9.06752,-15.30636 -14.8461,-21.77868 -3.7863,-2.87259 -8.88325,-1.00122 -13.27454,-1.54152 -19.09534,-0.17013 -38.19639,0.68418 -56.88994,-2.02084 -9.61883,-1.44702 -19.82264,-1.97649 -28.54929,-6.66548 -2.94551,-2.54578 -3.54271,-8.05782 -8.65911,-7.49014 z"
           id="path38"
           transform="matrix(0.26458335,0,0,0.26458335,-30.492521,12.905323)" /></g><g
         id="g35"
         style="fill:#fedd4f;fill-opacity:1"
         transform="translate(408.61218,55.426031)"
         inkscape:label="Belly"><path
           style="fill:#fedd4f;fill-opacity:1;stroke-width:0.34213"
           d="m -848.0838,552.91794 c -9.50426,8.05298 -18.66211,16.66002 -29.3444,23.19004 -12.32002,7.7958 -25.88482,13.34724 -39.72339,17.80601 -3.7815,1.64365 -8.31113,2.00911 -11.46303,4.83599 -2.80139,2.91553 -0.69772,8.23271 3.30503,8.52919 6.38642,0.14791 12.78091,-0.6695 19.14756,-1.17891 22.88954,-2.45666 45.66708,-7.3813 66.88684,-16.47461 11.81836,-4.74316 23.05698,-10.9162 33.49989,-18.19127 2.97424,-1.68747 4.34278,-6.061 1.69203,-8.63726 -2.76461,-2.70792 -7.0847,-1.68816 -10.57239,-2.46024 -10.18227,-1.34887 -19.94471,-4.71641 -29.65528,-7.8803 -1.34371,-0.36516 -2.51653,-0.0514 -3.77286,0.46136 z"
           id="path15"
           transform="matrix(0.26458335,0,0,0.26458335,-30.492521,12.905323)" /><path
           style="fill:#fedd4f;fill-opacity:1;stroke-width:0.34213"
           d="m -817.50862,507.63385 c -4.53029,0.27184 -5.89914,5.29238 -7.62241,8.66617 -3.71541,9.40958 -9.46848,17.78251 -15.18535,26.05466 -2.22426,2.83601 -1.11974,7.4479 2.40426,8.59468 10.1032,3.74256 20.86376,5.37732 31.51471,6.69826 5.2801,0.35601 11.10174,1.3807 15.98655,-1.20948 8.39392,-6.66943 14.29127,-15.89701 19.68897,-25.0297 3.0353,-5.64427 6.48872,-11.40351 7.31523,-17.86283 0.32249,-3.62509 -3.37523,-6.41557 -6.81169,-5.64522 -11.23868,1.46286 -22.55803,1.49264 -33.59456,0.98555 -4.61568,-0.0546 -9.11706,-1.02853 -13.69571,-1.25209 z"
           id="path16"
           transform="matrix(0.26458335,0,0,0.26458335,-30.492521,12.905323)" /><path
           style="fill:#fedd4f;fill-opacity:1;stroke-width:0.34213"
           d="m -763.80425,452.14533 c -14.51725,1.00051 -28.80932,4.02057 -43.06961,6.79248 -3.10598,0.66603 -7.30261,0.96579 -8.36146,4.61274 -1.1775,8.66138 -0.54896,17.21098 -1.9619,25.81076 -0.43758,3.9546 -1.80027,8.06602 -0.86235,11.98256 1.71007,3.77509 6.45453,3.44026 9.94615,3.96747 12.66388,0.84574 25.42939,0.67008 38.05207,-0.67711 4.13094,-0.6853 9.48676,-0.96054 11.44384,-5.37455 2.34442,-6.60084 2.41985,-13.7601 2.98678,-20.6798 0.19933,-7.05159 0.94176,-14.2409 -0.40956,-21.21451 -0.35579,-3.13153 -3.13814,-5.4826 -6.30403,-5.17323 -0.48621,-0.0266 -0.97272,-0.0551 -1.45993,-0.0468 z"
           id="path17"
           transform="matrix(0.26458335,0,0,0.26458335,-30.492521,12.905323)" /><path
           style="fill:#fedd4f;fill-opacity:1;stroke-width:0.34213"
           d="m -779.27494,401.89434 c -7.74924,0.76598 -15.22841,3.19345 -22.74664,5.11961 -7.80438,2.26839 -15.56144,4.89471 -22.9716,8.19637 -3.16809,1.56278 -2.95511,5.6831 -1.40547,8.35781 3.4842,9.0072 6.2115,18.67489 9.32505,27.98783 1.04868,3.27533 4.58398,5.56668 7.99085,4.47099 15.51853,-2.81119 31.11248,-5.41761 46.62162,-7.93038 3.56459,-0.70407 4.91348,-4.81921 3.891,-7.98861 -2.28406,-10.8887 -6.04502,-21.47545 -10.81646,-31.51629 -1.69655,-3.99568 -5.30901,-7.13886 -9.88835,-6.69733 z"
           id="path18"
           transform="matrix(0.26458335,0,0,0.26458335,-30.492521,12.905323)" /><path
           style="fill:#fedd4f;fill-opacity:1;stroke-width:0.34213"
           d="m -808.24037,359.07866 c -6.97594,0.71019 -13.54114,3.50783 -20.16631,5.6507 -7.2854,2.74902 -14.8063,5.11547 -21.61897,8.93058 -3.01384,1.90027 -2.96064,6.18069 -0.8015,8.71833 5.85998,8.7696 11.9146,17.41138 17.61397,26.28716 1.48504,2.71679 4.81333,4.31278 7.75366,2.9517 10.99732,-3.98205 22.05137,-7.72186 33.3642,-10.88355 4.01176,-1.50932 8.98391,-2.12962 11.64632,-5.8489 2.30511,-3.9425 -1.25419,-7.85798 -3.26554,-11.04102 -5.58069,-7.76077 -11.20901,-15.59243 -17.97124,-22.37745 -1.77271,-1.61333 -4.15832,-2.48703 -6.55459,-2.38755 z"
           id="path19"
           transform="matrix(0.26458335,0,0,0.26458335,-30.492521,12.905323)" /><path
           style="fill:#fedd4f;fill-opacity:1;stroke-width:0.34213"
           d="m -846.73599,323.60407 c -13.53548,4.09389 -26.77388,9.3694 -39.20098,16.09193 -3.28022,1.9613 -2.59896,6.9813 0.5372,8.7597 8.749,7.32912 16.97724,15.24606 25.22115,23.12874 2.51908,2.07123 5.7503,0.85244 8.19908,-0.6435 11.303,-5.63541 23.73681,-9.61346 35.3757,-14.83454 3.58219,-1.58648 3.95416,-6.8338 0.87403,-9.13794 -8.44314,-7.95631 -17.25979,-15.54407 -26.47965,-22.58926 -1.41867,-0.86167 -2.89939,-1.17202 -4.52653,-0.77513 z"
           id="path21"
           transform="matrix(0.26458335,0,0,0.26458335,-30.492521,12.905323)" /><path
           style="fill:#fedd4f;fill-opacity:1;stroke-width:0.34213"
           d="m -889.35522,292.57115 c -12.59239,4.79036 -25.20013,9.64293 -37.36432,15.4493 -3.64033,1.62575 -3.85591,7.02112 -0.63615,9.19741 9.81386,6.91715 19.35309,14.24829 29.34565,20.91069 2.96795,2.25048 6.53006,0.33815 9.37618,-1.08104 10.44765,-5.10348 21.17001,-9.62289 31.7469,-14.43241 3.68492,-1.74649 3.82946,-7.39986 0.29243,-9.38641 -9.52057,-6.90239 -19.13396,-13.72314 -29.00046,-20.10366 -1.19897,-0.70794 -2.41312,-0.71517 -3.76023,-0.55388 z"
           id="path22"
           transform="matrix(0.26458335,0,0,0.26458335,-30.492521,12.905323)" /><path
           style="fill:#fedd4f;fill-opacity:1;stroke-width:0.34213"
           d="m -1035.9452,97.021881 c -4.2592,0.914009 -5.5806,5.685709 -7.5723,8.971159 -2.9932,6.0643 -6.1695,12.12965 -8.1296,18.61908 -0.6718,4.43577 3.6909,7.17234 6.5787,9.70392 5.5713,4.2837 12.7076,6.0051 19.6536,5.73354 4.6753,-0.2096 9.6581,0.61034 14.0722,-1.27382 5.4507,-2.78834 5.1963,-10.86078 1.2302,-14.82518 -4.5835,-4.41674 -9.7258,-8.3183 -13.5121,-13.51413 -3.0329,-3.47556 -4.9469,-7.69211 -7.4547,-11.506125 -1.1706,-1.483317 -3.0176,-2.114332 -4.866,-1.908444 z"
           id="path23"
           transform="matrix(0.26458335,0,0,0.26458335,-30.492521,12.905323)" /><path
           style="fill:#fedd4f;fill-opacity:1;stroke-width:0.34213"
           d="m -1052.6788,135.74938 c -3.6999,1.70409 -3.149,6.18172 -3.737,9.52548 -0.2128,4.4381 -1.7701,9.07787 -0.2991,13.42328 2.0684,4.61492 7.7719,5.19938 12.2232,4.96837 9.6381,0.0254 19.4976,-0.55394 28.4996,-4.3242 4.0795,-1.27554 7.9666,-4.63546 7.7668,-9.25355 0.4547,-3.00736 -0.7895,-6.87739 -4.2351,-7.21649 -3.7414,0.0612 -7.3394,0.56943 -11.1131,0.53808 -6.9032,0.38463 -13.9128,-1.05937 -19.8075,-4.76239 -2.8825,-1.47345 -5.8207,-4.33176 -9.2978,-2.89858 z"
           id="path24"
           transform="matrix(0.26458335,0,0,0.26458335,-30.492521,12.905323)" /><path
           style="fill:#fedd4f;fill-opacity:1;stroke-width:0.34213"
           d="m -1012.5093,161.98379 c -6.182,1.31174 -11.9408,3.58503 -18.3153,3.89574 -7.4009,0.73285 -14.8933,0.59038 -22.2595,1.54755 -3.2057,0.83905 -4.3751,4.51235 -3.4209,7.43736 1.6302,7.86462 2.9745,15.87569 5.8269,23.41051 1.1633,3.44851 4.8639,5.24128 8.3477,4.72562 10.5595,-1.07642 20.7284,-4.47912 30.7371,-7.86064 4.1503,-1.51005 9.59,-3.46942 10.1752,-8.54484 -0.1041,-4.68874 -1.9627,-9.16377 -3.0404,-13.69517 -1.3578,-3.71493 -1.6837,-8.77332 -5.7554,-10.61476 -0.7536,-0.2269 -1.5048,-0.37406 -2.2954,-0.30137 z"
           id="path25"
           transform="matrix(0.26458335,0,0,0.26458335,-30.492521,12.905323)" /><path
           style="fill:#fedd4f;fill-opacity:1;stroke-width:0.34213"
           d="m -1000.7038,195.01402 c -8.0059,2.1525 -15.961,5.26819 -23.8428,7.42061 -5.3565,1.65276 -10.8779,2.62797 -16.3628,3.72133 -3.2656,0.99364 -4.5553,5.13197 -2.7163,7.9318 4.2784,8.59974 9.9579,16.44103 15.8475,23.99854 1.8241,2.47375 4.5881,5.29076 7.9421,3.93642 12.5278,-4.24018 25.18795,-8.35554 37.04883,-14.26353 3.33518,-1.45703 4.31097,-5.95222 1.98916,-8.72057 -4.65127,-6.79372 -9.46115,-13.48097 -13.8576,-20.4476 -1.33364,-2.05511 -3.44366,-3.83249 -6.04809,-3.577 z"
           id="path26"
           transform="matrix(0.26458335,0,0,0.26458335,-30.492521,12.905323)" /><path
           style="fill:#fedd4f;fill-opacity:1;stroke-width:0.34213"
           d="m -976.74,229.07666 c -12.11769,4.87294 -24.2805,9.64669 -36.2878,14.78575 -3.3616,1.50543 -3.864,6.41103 -0.96,8.62987 8.499,8.31946 17.74297,15.89525 27.46302,22.74117 2.31941,1.8338 5.50614,2.83772 8.25389,1.287 9.93509,-4.35452 19.87977,-8.44199 29.89441,-12.63969 2.98557,-1.2877 7.25213,-2.96676 6.77073,-6.97063 -0.2419,-3.74463 -4.19708,-5.50862 -6.60127,-7.84573 -7.95748,-6.38082 -15.95253,-12.74519 -23.74914,-19.30446 -1.37119,-0.99837 -3.18907,-1.23802 -4.78384,-0.68328 z"
           id="path27"
           transform="matrix(0.26458335,0,0,0.26458335,-30.492521,12.905323)" /><path
           style="fill:#fedd4f;fill-opacity:1;stroke-width:0.34213"
           d="m -934.51703,262.02336 c -12.02994,4.90134 -24.19995,9.4959 -36.07465,14.76438 -3.69468,1.56085 -4.10476,6.94142 -0.94888,9.2796 8.11,6.63264 17.00925,12.23761 25.54723,18.29728 3.21596,1.77325 6.12428,5.49673 10.17193,4.56194 8.44207,-3.91264 16.69402,-8.2613 25.27894,-11.88087 3.75823,-1.93567 7.99277,-3.15984 11.3323,-5.79495 2.79533,-2.74614 1.23081,-7.36542 -1.95322,-9.0504 -9.71506,-6.77524 -19.53848,-13.45044 -29.58151,-19.7094 -1.21491,-0.68079 -2.4289,-0.66001 -3.77214,-0.46758 z"
           id="path28"
           transform="matrix(0.26458335,0,0,0.26458335,-30.492521,12.905323)" /><path
           style="fill:#fedd4f;fill-opacity:1;stroke-width:0.0604806"
           d="m -1017.5106,95.883465 c -2.0641,0.01676 -4.0338,1.411615 -4.688,3.37713 -0.6352,1.724575 -0.1521,3.688535 0.9496,5.114015 1.5893,2.02361 3.4257,3.83956 5.2651,5.63359 1.5772,1.4836 3.3399,3.05085 5.5812,3.31494 2.2516,0.3167 4.6023,-0.93294 5.5992,-2.97668 0.961,-1.97054 0.9881,-4.45872 -0.1919,-6.34671 -1.4424,-2.30554 -3.7098,-3.93468 -5.9903,-5.338744 -1.5351,-0.905539 -3.0493,-1.889196 -4.7283,-2.509867 -0.5784,-0.190939 -1.1883,-0.276293 -1.7966,-0.267674 z"
           id="path30"
           transform="matrix(0.26458335,0,0,0.26458335,-30.492521,12.905323)" /></g><g
         id="g37"
         style="fill:#fffefd;fill-opacity:1"
         transform="translate(408.61218,55.426031)"
         inkscape:label="Teeth and Eye"><path
           style="fill:#fffefd;fill-opacity:1;stroke-width:0.34213"
           d="m -925.76064,-64.200134 c -5.52556,-0.228561 -11.39981,1.156331 -15.23481,5.40191 -6.82864,7.449366 -8.88653,19.234252 -4.17772,28.327283 4.30912,8.344619 12.70061,14.590963 21.94309,16.285915 9.76203,1.448715 20.26188,-1.807099 26.92668,-9.218128 4.78314,-5.420946 7.68348,-12.625324 7.81754,-19.855559 -0.0612,-5.55905 -4.74775,-9.53855 -9.45961,-11.615119 -2.49247,-1.79982 -6.63153,-2.06765 -8.24244,0.984035 -1.69855,3.108287 -0.36207,6.908293 -1.00417,10.302319 -0.32553,3.919862 -2.0335,9.175858 -6.59936,9.684547 -3.64444,0.690263 -5.7782,-3.198565 -6.1824,-6.261912 -1.14059,-6.191614 1.60192,-12.143437 3.22655,-17.942436 0.63471,-3.662787 -3.04017,-6.300271 -6.41263,-6.036725 -0.86605,-0.04781 -1.73349,-0.06112 -2.60072,-0.05613 z"
           id="path31"
           transform="matrix(0.26458335,0,0,0.26458335,-30.492521,12.905323)" /><path
           style="fill:#fffefd;fill-opacity:1;stroke-width:0.34213"
           d="m -807.09504,19.980518 c -7.00219,0.391374 -14.07085,0.850252 -20.93474,2.335437 -3.33482,0.988232 -4.49809,5.110716 -2.89103,8.010805 2.74588,6.941577 5.80309,13.772842 8.85425,20.575749 1.8221,3.585991 7.39652,3.580023 9.2649,0.02339 5.00887,-7.607744 10.21485,-15.198017 13.95516,-23.529446 1.53508,-3.718525 -1.9289,-7.683483 -5.76141,-7.37918 -0.82826,-0.04081 -1.65805,-0.04653 -2.48713,-0.03675 z"
           id="path32"
           transform="matrix(0.26458335,0,0,0.26458335,-30.492521,12.905323)" /><path
           style="fill:#fffefd;fill-opacity:1;stroke-width:0.34213"
           d="m -748.57012,10.855273 c -5.23225,0.825939 -10.49626,1.808951 -15.55555,3.385214 -3.0132,1.415885 -3.52794,5.14929 -2.32613,7.962496 1.45538,4.147793 2.36228,8.746695 5.17018,12.222497 2.26174,2.899796 6.72389,1.776431 8.54781,-1.045099 3.56251,-4.937311 6.84597,-10.173354 9.29965,-15.752006 1.16071,-3.292853 -1.60384,-7.064194 -5.13596,-6.773102 z"
           id="path33"
           transform="matrix(0.26458335,0,0,0.26458335,-30.492521,12.905323)" /><path
           style="fill:#fffefd;fill-opacity:1;stroke-width:0.34213"
           d="m -829.8166,131.95053 c -4.41363,0.41351 -5.83896,5.30849 -7.48827,8.69406 -1.92188,3.40953 -0.83488,8.17748 2.83944,9.88319 8.10932,3.75369 17.44891,4.58657 26.22372,3.2048 3.18231,-0.49796 6.43028,-3.5257 5.13679,-6.92303 -1.14358,-3.43573 -5.24497,-4.28784 -7.94543,-6.22785 -5.62578,-3.01701 -11.12145,-6.48072 -17.20462,-8.49819 -0.51236,-0.11677 -1.03727,-0.15388 -1.56163,-0.13298 z"
           id="path35"
           transform="matrix(0.26458335,0,0,0.26458335,-30.492521,12.905323)" /></g><path
         style="fill:#000000;fill-opacity:0.125571;stroke:none;stroke-opacity:1"
         d="m 10.285327,212.6095 c 6.906537,8.29449 15.366333,11.12103 26.111589,14.5821 -3.545196,2.42918 -3.050844,3.56757 -3.715646,3.55251 -9.071344,-2.92356 -23.6051765,-6.30569 -22.395943,-18.13461 z m 174.565253,0.76463 c 8.43639,-5.27603 16.98421,-13.20506 11.26341,-23.87508 l 1.14183,0.89961 c 4.31372,3.39863 5.5916,6.71863 5.15133,9.88728 -0.38506,2.77129 -2.75599,6.11929 -5.83235,8.23589 -3.67697,2.52981 -8.23473,4.37976 -11.72422,4.8523 z M 20.48581,192.02554 c 1.00921,-2.1151 4.44828,-5.78875 7.0191,-7.49789 5.9507,-3.95615 14.01883,-6.77781 24.91185,-8.71242 2.16025,-0.38366 4.071106,-0.6635 4.23324,-0.70799 0.192082,-0.0527 0.333146,-0.18006 0.296282,-0.49448 1.302006,1.11242 2.516344,2.36741 3.652078,3.6583 -0.318917,0.6717 -20.90022,1.53405 -30.8082,12.14342 -3.18166,3.40689 -4.52567,6.78821 -4.53107,11.39943 -0.006,5.14907 1.872418,8.51073 6.037888,11.10784 -7.09263,-1.99025 -16.142439,-9.72296 -10.811168,-20.89621 z m 127.31537,-8.36248 c 11.83281,0.55189 24.37874,-0.27056 35.53619,4.33987 3.6897,1.63176 10.77983,9.38281 -0.86968,13.11792 -27.19533,-10.00555 -31.91019,-5.16152 -34.66651,-17.45779 z m -2.02753,-61.20766 c -12.12868,-5.64449 -3.74228,-1.99504 -10.9493,-5.59556 l -9.94812,-5.08328 -8.20219,-4.41094 c -1.40655,-0.74641 -1.63779,-0.98745 -2.07507,-2.16295 -0.38567,-1.03675 -0.47008,-1.84721 -0.39023,-3.7467 0.0928,-2.20809 0.19993,-2.62163 1.20346,-4.64684 1.28111,-2.58538 3.09426,-4.54901 5.23455,-5.66898 1.19988,-0.62786 1.5192,-0.69942 1.90697,-0.42735 0.25618,0.17973 0.83521,0.49376 1.28675,0.69783 0.67569,0.3054 0.99443,0.78602 1.80116,2.71593 1.32188,3.1623 2.38289,3.814131 3.16299,4.1368 2.09242,0.865479 1.89176,0.335684 3.45259,0.112812 0.32742,0.199138 5.59754,3.034148 10.3465,5.381858 7.85914,3.88529 8.6007,4.3081 8.25837,4.7087 -0.78229,0.91546 -2.08926,3.51687 -1.94967,3.88064 0.08,0.20857 0.55288,0.54942 1.05077,0.75745 0.98991,0.41361 1.38221,0.83884 0.99479,1.07828 -0.13656,0.0844 -0.51867,0.95583 -0.84913,1.93652 -0.62494,1.85459 -0.84599,5.58186 -0.43919,7.40545 0.1055,0.47295 0.1055,0.8548 0,0.84857 -0.17211,-0.01 -3.88599,-1.91358 -3.896,-1.91824 z m 12.96118,1.10547 c -0.29292,-0.14252 -0.82729,-0.68922 -1.18749,-1.2149 -1.31004,-1.91188 -0.51285,-5.68904 1.6044,-7.60185 1.6587,-1.49854 3.85562,-1.80781 4.87109,-0.68573 0.40705,0.4498 0.34413,0.47915 -1.24371,0.58026 -2.66234,0.16952 -4.19877,1.72078 -4.37104,4.41323 -0.12261,1.91633 0.48012,3.16343 1.85317,3.83431 0.54661,0.26708 0.92654,0.5945 0.84428,0.7276 -0.19386,0.31367 -1.68568,0.28036 -2.3707,-0.0529 z m -7.5289,-17.46382 c -1.83787,-1.12039 -17.9138,-8.826614 -17.9138,-8.826614 0.2793,-0.43387 0.64304,-0.847904 0.97414,-1.256316 l 1.38809,0.66852 c 6.50082,2.498797 13.4887,5.89868 19.02598,8.92442 0.44875,0.24521 0.32201,0.19802 -0.20909,0.22698 -0.3096,0.0169 -0.71113,0.20928 -0.89229,0.42756 -0.45793,0.55177 -1.29286,0.49387 -2.37293,-0.16455 z M 101.92268,76.496567 c -5.626168,-1.694063 -5.558888,-7.778663 -3.4909,-9.177181 -0.3859,1.107012 -0.2791,3.053909 0.64281,4.148964 0.80128,0.951774 0.88535,0.882902 0.80741,-0.661459 -0.022,-0.436562 0.22583,-1.627187 0.55084,-2.645833 0.32499,-1.018646 0.53986,-2.065906 0.56231,-2.189514 0.60288,-0.393586 1.3391,-0.14701 2.00824,-0.05945 l -0.50914,1.448598 c -1.07596,3.061312 -0.43742,5.857668 1.48226,6.49122 2.18992,0.72274 4.09402,-1.306353 4.09402,-4.36278 v -1.471126 l 1.0541,0.537762 c 1.25283,0.639145 1.51152,1.37152 1.08407,3.069077 -0.38212,1.517536 -1.34771,3.060987 -2.37064,3.789383 -1.6721,1.190638 -4.08777,1.632632 -5.91538,1.082333 z"
         id="path9"
         sodipodi:nodetypes="ccscccssscsssscssscsccccscccsssssssscsssssssssssssscssssscsssssssscssscsscsssssss"
         inkscape:label="Accent"
         transform="translate(30.492522,-12.905323)" /><path
         style="fill:#171717"
         d="m 77.51116,246.18315 c -23.22141,-1.09204 -41.53123,-3.42869 -58.73749,-7.49594 -1.30969,-0.30958 -5.29828,-1.21276 -8.86354,-2.00705 -7.45625,-1.66113 -8.74642,-2.04356 -9.42544,-2.79388 -0.48109,-0.5316 -0.47881,-0.55403 0.10421,-1.02612 0.6908,-0.55938 2.25789,-0.93039 5.73418,-1.3576 l 2.47886,-0.30464 -1.65114,-2.01117 c -2.11373,-2.57464 -3.54374,-4.70982 -4.72043,-7.04823 -2.30374,-4.57816 -3.24534,-7.80737 -3.6212,-12.41886 -0.87096,-10.68581 3.70195,-20.28569 13.36551,-28.05814 5.63861,-4.53515 13.25041,-8.31185 22.09726,-10.96384 3.39331,-1.01721 11.28858,-2.93498 13.6113,-3.3062 1.87801,-0.30015 1.90218,-0.4382 0.40136,-2.29266 -2.10993,-2.60709 -6.16422,-8.79337 -7.78203,-11.87428 -3.92865,-7.4816 -6.97643,-16.66156 -8.2572,-24.87083 -0.57512,-3.68634 -0.80462,-14.42048 -0.39239,-18.35343 1.71155,-16.329379 8.24364,-29.762449 20.02536,-41.181619 3.77893,-3.66264 5.87975,-5.36226 10.18591,-8.24068 8.25853,-5.52033 17.93496,-9.21719 28.01462,-10.70292 4.37278,-0.64454 12.69444,-0.65359 16.53646,-0.018 3.93386,0.6508 5.44552,1.04436 9.8226,2.55729 4.26517,1.47425 5.77455,1.81353 12.4024,2.78783 14.27761,2.09882 18.89517,3.52812 22.71964,7.03255 6.03813,5.53285 7.44887,15.06864 3.07933,20.81444 -0.69553,0.91459 -1.06043,1.66935 -1.06043,2.19335 0,0.96285 -0.68512,2.36209 -2.45367,5.01118 -2.55521,3.82744 -3.61225,4.7625 -5.38375,4.7625 -1.6922,0 -2.44861,-0.85783 -3.81144,-4.3225 -0.62032,-1.57702 -1.28945,-2.92931 -1.48696,-3.0051 -0.97704,-0.37492 -1.56873,0.1772 -2.73096,2.54834 -0.64274,1.31128 -1.12845,2.449034 -1.05144,2.48545 l 21.01926,9.939069 c 7.27189,3.43855 7.95989,3.69754 9.26129,5.08575 1.91432,2.04204 2.94175,4.65247 3.11188,7.90649 l 0.0623,1.19063 2.24895,1.11897 c 1.23693,0.61544 8.14256,3.96967 15.34584,7.45385 7.20328,3.48417 13.53987,6.70513 14.08131,7.15768 2.41318,2.01699 2.11872,6.39689 -0.53013,7.88562 -1.95953,1.10132 -2.3313,0.98474 -11.70891,-3.67159 -4.72403,-2.34566 -11.97088,-5.91801 -16.10411,-7.93857 l -7.51497,-3.67374 -0.40075,0.59638 c -1.47929,2.20141 -4.7685,4.24594 -7.61647,4.73431 -2.7185,0.46617 -4.7081,-0.0744 -10.35772,-2.81432 -2.5513,-1.23731 -4.66705,-2.24965 -4.70166,-2.24965 -0.0346,0 -0.20188,0.55179 -0.37169,1.22619 -0.46002,1.82688 -1.2475,3.20395 -2.72646,4.76773 -3.77368,3.99011 -9.50881,4.97224 -16.73761,2.86629 -5.0922,-1.4835 -7.14393,-2.71911 -17.99312,-10.83601 -3.92906,-2.93956 -8.14112,-5.97365 -9.36013,-6.74243 -2.26203,-1.42657 -6.92681,-3.71718 -7.56995,-3.71718 -0.43938,0 -0.83108,1.73842 -1.07308,4.7625 -0.41134,5.14006 1.26036,10.85474 4.65596,15.91634 1.76085,2.62478 7.08289,7.75576 10.70137,10.31719 1.74625,1.23612 6.68441,4.61818 10.9737,7.51567 12.18983,8.23446 18.77517,13.34509 24.39806,18.93438 l 2.82801,2.81112 8.54907,0.17453 c 8.85604,0.1808 11.47943,0.35615 18.55335,1.24012 11.22292,1.40245 18.59429,3.35201 25.44989,6.73095 8.83678,4.35541 14.07348,10.01339 16.45157,17.77508 1.04541,3.41202 1.08126,10.38117 -0.009,13.94055 -1.3032,4.25632 -3.33041,7.97866 -5.8106,10.66935 -1.18854,1.28941 -1.18472,1.29281 1.67074,1.48765 2.63407,0.17974 4.62208,0.63541 5.35247,1.22685 0.58918,0.47709 0.59021,0.48912 0.0888,1.0432 -0.78554,0.86804 -3.80544,1.59847 -14.83394,3.58802 -11.60707,2.09392 -17.21565,2.88221 -27.25208,3.83028 -8.50201,0.80312 -13.10835,1.08813 -20.90208,1.29324 l -7.14375,0.18801 -2.18281,1.29877 c -1.20055,0.71433 -2.18282,1.37894 -2.18282,1.47693 0,0.098 1.0418,0.19745 2.31511,0.22104 7.12679,0.13202 13.55284,1.05623 13.91553,2.00137 0.38934,1.01462 -2.02433,1.69623 -8.42543,2.3793 -11.47595,1.22461 -21.56602,1.95929 -31.08854,2.26363 -6.94684,0.22201 -31.45593,0.28345 -35.58646,0.0892 z m 32.27917,-5.78408 c 7.07329,-1.15551 10.75252,-2.23773 16.80104,-4.94193 1.70609,-0.76276 6.61458,-3.70289 6.61458,-3.96206 0,-0.12016 -0.58004,-0.21847 -1.28899,-0.21847 -1.33492,0 -5.26562,-0.9257 -7.57455,-1.78385 l -1.32291,-0.49169 -2.38125,2.1069 c -4.54328,4.01983 -9.16083,6.6137 -15.36059,8.62868 -1.88366,0.6122 -3.48436,1.17758 -3.55712,1.25638 -0.224,0.24261 5.55059,-0.18242 8.06979,-0.59396 z m -16.40417,-3.04191 c 12.71118,-1.27985 21.83311,-5.73992 28.32386,-13.84865 1.77184,-2.21351 3.95937,-6.16378 4.70911,-8.50377 1.07042,-3.34088 1.49312,-8.6968 0.97105,-12.30412 -0.62119,-4.29223 -2.80536,-9.75869 -5.62998,-14.09052 -4.78881,-7.34411 -11.75532,-13.40208 -28.37404,-24.67359 -15.24677,-10.34101 -21.85367,-16.6418 -25.79786,-24.60259 -2.95839,-5.97109 -3.8556,-10.11167 -3.6325,-16.76389 0.11145,-3.3231 0.27957,-4.68024 0.85351,-6.89016 1.12942,-4.34876 2.96824,-8.29657 5.20593,-11.17673 0.91767,-1.18116 0.92121,-1.29582 0.0647,-2.09862 -2.1534,-2.01843 -4.9362,-6.923399 -5.6928,-10.034139 -0.51479,-2.11656 -0.47018,-6.42221 0.0851,-8.21446 0.5525,-1.78324 2.29318,-4.54485 3.26678,-5.18278 0.98425,-0.6449 2.37379,-0.60096 3.07189,0.0971 0.78617,0.78618 0.68965,1.9805 -0.25746,3.18574 -1.6918,2.15287 -2.26872,4.4392 -1.88709,7.47853 0.90166,7.18081 6.92096,12.892529 18.23748,17.305509 9.57155,3.73252 11.72463,5.04974 25.52455,15.61552 2.46961,1.89083 5.42254,3.99823 6.56207,4.68311 5.69264,3.42138 13.58045,4.13333 16.80373,1.51671 1.26421,-1.02627 1.9788,-2.26507 2.11315,-3.66335 l 0.12429,-1.29352 -1.81754,0.66071 c -2.49355,0.90643 -5.65158,1.09332 -8.5502,0.50598 -5.73477,-1.16201 -9.23593,-3.8401 -23.42985,-17.92183 -3.34698,-3.32052 -7.27604,-7.329917 -8.73125,-8.909769 l -2.64583,-2.87245 -2.77813,-0.13787 c -5.88827,-0.29222 -9.45454,-2.65919 -7.36221,-4.88638 0.73882,-0.78643 2.12461,-0.80188 4.4518,-0.0496 3.57516,1.15568 6.98192,0.73011 27.78124,-3.47048 12.36718,-2.49765 12.46538,-2.51327 18.30188,-2.90995 2.28025,-0.15498 5.50084,-0.59697 7.8052,-1.07116 2.15772,-0.44402 4.93516,-0.9964 6.17209,-1.22751 2.92327,-0.54619 3.45888,-0.8439 4.28196,-2.38003 1.74786,-3.26206 0.94013,-8.48868 -1.82534,-11.81136 -3.36487,-4.04285 -7.53341,-5.40513 -23.25618,-7.60013 -5.41314,-0.7557 -8.06138,-1.36458 -12.53794,-2.88269 -5.76623,-1.95546 -7.66046,-2.26628 -13.75833,-2.25755 -7.40315,0.0106 -9.90478,0.59311 -16.61027,3.86768 -8.1548,3.98233 -19.79216,12.76442 -28.50119,21.50831 -5.21089,5.23175 -7.83883,9.11549 -9.62151,14.21932 -1.95153,5.587222 -2.14441,11.530589 -0.45773,14.104779 0.36733,0.56062 0.36906,0.74597 0.0164,1.74567 -1.49125,4.22664 -2.09726,12.29487 -1.36042,18.112 0.86526,6.83092 2.78018,13.19903 5.88369,19.56638 4.89991,10.05295 11.28112,17.70359 22.57995,27.07186 10.865,9.00858 16.89609,14.75871 19.9217,18.99359 5.88602,8.23857 7.16865,15.79002 3.621,21.31855 -1.15258,1.79614 -3.54462,3.91446 -5.67719,5.02754 -3.89109,2.03095 -7.93087,2.86241 -13.90739,2.86241 -5.15951,0 -8.7896,-0.89629 -9.86846,-2.43658 -0.5403,-0.77139 -0.52783,-2.04618 0.0278,-2.83943 l 0.44215,-0.63126 -3.6833,0.16571 c -4.42522,0.19908 -13.37603,-0.17864 -17.71656,-0.74763 -5.80359,-0.76078 -11.59461,-2.30068 -14.05271,-3.73677 -4.05418,-2.36857 -5.91597,-5.85122 -5.90984,-11.05487 0.005,-4.58953 1.35466,-7.978 4.53107,-11.37928 3.97766,-4.25924 10.41434,-7.59037 18.97988,-9.8225 2.04604,-0.5332 10.98675,-2.23196 11.74691,-2.23196 0.11967,0 -1.22704,-1.42875 -2.99269,-3.175 -3.55848,-3.51939 -3.32198,-3.41546 -6.60372,-2.90184 -0.94589,0.14803 -3.68433,0.69447 -6.08542,1.21429 -13.55212,2.93399 -23.25116,7.212 -30.48417,13.44579 -8.14232,7.01747 -10.75897,16.48792 -6.37881,23.0869 0.51253,0.77216 1.2773,1.64989 1.69951,1.95053 0.69717,0.49643 0.76764,0.68851 0.76764,2.09252 0,4.29549 2.4365,8.05592 6.80121,10.49681 2.53987,1.42037 7.9595,3.70675 11.95686,5.04423 l 3.54454,1.18597 0.68153,-0.88625 c 1.83489,-2.38604 3.50532,-3.36664 6.1065,-3.58471 3.32462,-0.27873 5.91715,0.81842 7.91942,3.35148 0.58843,0.74442 1.27013,1.98878 1.51489,2.76524 l 0.44501,1.41175 2.277,0.55216 c 5.70173,1.38265 16.89435,2.84504 25.42803,3.32236 2.98132,0.16675 13.23913,-0.0697 16.27188,-0.37502 z m -23.0676,-5.28864 c -1.20563,-0.48576 -1.54359,-2.33253 -0.55373,-3.02585 0.81132,-0.56828 6.24403,-0.58664 7.33054,-0.0248 1.25226,0.64757 1.41751,1.67796 0.42782,2.66764 -0.61526,0.61526 -0.8067,0.64855 -3.63802,0.63266 -1.64372,-0.009 -3.2487,-0.12157 -3.56661,-0.24967 z m -18.0751,-7.96656 c -2.96082,-1.1725 -5.25539,-2.24877 -5.75469,-2.69925 -0.73703,-0.66495 -0.79458,-2.03458 -0.11146,-2.6528 0.74432,-0.67359 2.14076,-0.52629 4.66748,0.49234 3.78453,1.52572 4.63825,2.13369 4.63825,3.30311 0,1.45543 -1.72441,2.23582 -3.43958,1.5566 z m -35.48553,-2.21887 c -0.94516,-0.51364 -1.67221,-2.06604 -1.29645,-2.76817 0.72112,-1.34742 2.18605,-1.2697 3.46213,0.18368 0.63625,0.72464 0.78009,1.08449 0.64984,1.62568 -0.31377,1.30364 -1.46166,1.69455 -2.81552,0.95881 z M 11.6656,200.56574 c -1.50399,-1.18304 -0.38611,-5.00788 1.46364,-5.00788 0.25055,0 0.77163,0.27189 1.15795,0.60419 0.66386,0.57103 0.6917,0.68985 0.50737,2.16525 -0.31042,2.48446 -1.6227,3.42327 -3.12896,2.23844 z m 35.28619,-99.99328 c -1.43716,-1.437159 0.49301,-6.948389 3.97726,-11.356309 1.8567,-2.34889 3.45754,-2.94943 4.87986,-1.83063 0.66213,0.52083 0.7162,0.69442 0.6111,1.96182 -0.22501,2.71336 -4.28095,9.62304 -6.55025,11.158979 -1.0885,0.73673 -2.2217,0.76242 -2.91797,0.0661 z m 52.8285,-20.490899 c -3.23862,-1.33163 -5.09614,-3.1743 -6.16315,-6.11387 -2.0961,-5.77468 1.18121,-11.57816 6.94178,-12.29257 2.18177,-0.27058 4.33898,0.16831 7.58102,1.54239 3.33239,1.41237 5.23903,2.04041 7.73581,2.54815 2.94926,0.59977 3.00148,0.62212 3.44159,1.47319 0.28065,0.54271 0.32243,0.94593 0.14609,1.40975 -0.41562,1.09315 -1.28038,1.49678 -3.20681,1.49678 h -1.75034 l -0.0369,0.99219 c -0.15015,4.04305 -3.0999,7.73843 -7.30592,9.15271 -2.021,0.67956 -5.45925,0.58236 -7.38322,-0.20872 z m 6.1578,-3.7129 c 2.26149,-0.7979 3.67136,-2.36401 4.27062,-4.74386 0.42745,-1.69756 0.16876,-2.42993 -1.08407,-3.06908 l -1.0541,-0.53776 v 1.47113 c 0,3.05642 -1.9041,5.08552 -4.09402,4.36278 -1.91968,-0.63356 -2.55822,-3.42991 -1.48226,-6.49122 l 0.50914,-1.4486 c -2.13831,-0.12091 -3.992417,0.15682 -5.108,2.19339 -1.05869,2.12451 -0.80002,4.44892 0.68307,6.13807 1.9647,2.23767 4.75613,3.04371 7.35962,2.12515 z m 22.85364,2.52295 c -1.35212,-0.61388 -2.02716,-1.78315 -2.03318,-3.52175 -0.0101,-2.89884 3.1351,-4.67356 5.69051,-3.21098 1.20997,0.69252 2.20055,2.68391 1.96353,3.94734 -0.23324,1.24325 -1.55126,2.69421 -2.74976,3.02709 -1.31166,0.36432 -1.58745,0.3411 -2.8711,-0.2417 z m 9.21755,147.953229 c 2.02193,-2.09738 4.87132,-6.79626 5.40101,-8.90672 0.19143,-0.76274 0.18957,-0.76408 -0.83905,-0.60023 -3.33441,0.53113 -9.31015,0.45239 -12.05657,-0.15885 -0.14242,-0.0317 -0.57741,0.72105 -0.96664,1.67278 -0.87322,2.13512 -2.05011,4.21703 -3.33659,5.90235 -0.53855,0.70553 -0.94127,1.31895 -0.89494,1.36316 0.54138,0.51659 5.39851,1.57761 8.28633,1.81012 3.14796,0.25345 3.1093,0.26295 4.40645,-1.08261 z m 20.59667,-9.72648 c 18.41638,-0.92727 33.01566,-4.47301 39.14169,-9.50637 4.79982,-3.94371 5.99075,-8.7611 3.22088,-13.02864 -2.04308,-3.14778 -5.45758,-5.97381 -9.95111,-8.23609 -7.08316,-3.56605 -13.54065,-5.31617 -24.55354,-6.65457 -5.38279,-0.65417 -13.83603,-1.12624 -18.23612,-1.01839 l -3.36673,0.0825 1.74146,2.77429 c 0.95781,1.52586 2.21879,3.72851 2.80219,4.89479 0.58339,1.16628 1.08272,2.14643 1.10962,2.17812 0.0269,0.0317 1.82876,0.17634 4.00414,0.32145 2.17537,0.14511 5.63512,0.52497 7.68831,0.84414 l 3.73308,0.58031 0.89713,-0.68342 c 1.37521,-1.04763 3.08363,-1.38448 5.07103,-0.99987 3.88705,0.75225 8.40127,2.75051 10.23601,4.53107 1.46433,1.42108 1.96553,2.49593 1.97629,4.23823 0.0165,2.66662 -1.63033,4.36562 -5.46724,5.64058 -2.77472,0.92201 -5.07652,1.10723 -6.95904,0.55996 -1.68799,-0.49071 -3.03388,-1.61611 -3.03388,-2.53684 0,-0.65869 0.008,-0.65896 -4.23334,0.14002 -1.23692,0.23301 -4.15395,0.49605 -6.48229,0.58454 l -4.23333,0.16088 -0.0233,4.39317 c -0.0187,3.53056 -0.14225,4.93865 -0.62926,7.17129 -0.3333,1.52797 -0.66762,3.06424 -0.74293,3.41393 -0.13609,0.63192 -0.12661,0.6348 1.5553,0.47195 0.93073,-0.0901 3.06145,-0.23279 4.73494,-0.31705 z m 15.39572,-5.6958 c -1.2267,-1.14285 -0.4492,-2.34326 1.99021,-3.07276 0.84248,-0.25195 2.18028,-0.46499 2.9729,-0.47345 1.29741,-0.0138 1.48157,0.056 1.84665,0.70012 0.37561,0.66268 0.36506,0.77006 -0.14298,1.4552 -1.17126,1.57958 -5.49581,2.48181 -6.66678,1.39089 z m 18.26523,-3.84116 c -0.97522,-0.68307 -0.76893,-1.74733 0.64927,-3.3496 1.58503,-1.79077 1.92096,-2.0407 2.75659,-2.05094 0.979,-0.012 1.67253,0.83848 1.4408,1.76686 -0.29669,1.18862 -1.19739,2.45186 -2.33661,3.27711 -1.20669,0.87413 -1.67596,0.94079 -2.51005,0.35657 z m -35.12818,-21.13963 c -0.97437,-0.97438 -0.84636,-1.86894 0.35827,-2.50358 0.77606,-0.40885 2.08926,-0.13301 2.43408,0.51129 0.44238,0.82659 0.30161,1.79049 -0.32566,2.22984 -0.84582,0.59244 -1.72098,0.50815 -2.46669,-0.23755 z m -13.80992,27.39967 c 0.69262,-0.11483 1.32031,-0.26979 1.39487,-0.34435 0.80957,-0.80957 1.30905,-10.66191 0.55519,-10.95119 -0.47677,-0.18296 -5.55456,0.53172 -9.61795,1.35369 -1.77847,0.35976 -3.29652,0.65411 -3.37344,0.65411 -0.0769,0 -0.144,1.10132 -0.14908,2.4474 -0.005,1.34606 -0.17815,3.39549 -0.38461,4.55428 -0.20646,1.15879 -0.31636,2.1659 -0.24423,2.23803 0.52248,0.52249 8.75582,0.55595 11.81925,0.048 z m -74.81347,-6.50758 c 7.33113,-1.1328 12.03975,-3.36105 13.39159,-6.33727 0.93787,-2.06484 0.46281,-3.5473 -1.89104,-5.90113 l -1.38845,-1.38845 -4.52689,0.16109 c -3.17095,0.11285 -6.07226,0.0325 -9.68625,-0.2682 -8.24276,-0.68583 -11.88524,-1.66154 -12.5244,-3.35487 -0.16039,-0.42492 -0.36372,-0.77257 -0.45185,-0.77257 -0.28874,0 -3.79621,1.25266 -5.09616,1.82004 -4.11846,1.79758 -8.13714,5.07558 -9.17222,7.48169 -1.08525,2.52274 -0.21578,4.59743 2.55983,6.1081 2.25479,1.22721 7.22871,2.43832 12.11709,2.9504 2.36675,0.24793 14.11041,-0.1035 16.66875,-0.49883 z m 66.44797,-6.73082 c 2.25519,-0.4419 9.34284,-1.60559 9.77905,-1.60559 0.49296,0 -1.04271,-5.13877 -2.43134,-8.13594 -0.91975,-1.98516 -0.81809,-1.96835 -5.29459,-0.87523 -2.77925,0.67866 -4.19599,1.13578 -7.28614,2.35092 l -0.69756,0.2743 0.86651,2.33308 c 0.47658,1.28319 1.08474,3.19628 1.35147,4.2513 0.26673,1.05503 0.62431,1.91823 0.79464,1.91823 0.17032,0 1.48341,-0.22998 2.91796,-0.51107 z m -4.73403,-12.07462 c 1.38627,-0.51923 3.96259,-1.33799 5.72515,-1.81947 1.97118,-0.53848 3.22978,-1.01529 3.26992,-1.23878 0.0689,-0.3837 -3.06589,-4.69408 -4.78377,-6.57774 -0.92861,-1.01821 -1.09342,-1.09739 -1.94983,-0.93673 -2.00949,0.37698 -9.50202,3.12496 -10.07057,3.6935 -0.056,0.056 0.54008,0.97593 1.32461,2.0443 0.78452,1.06837 1.9543,2.80467 2.59952,3.85845 0.64521,1.05378 1.21617,1.91699 1.26879,1.91823 0.0526,0.001 1.22991,-0.42255 2.61618,-0.94176 z m -3.44209,-12.42888 c 1.9267,-0.72131 3.50428,-1.38361 3.50573,-1.47178 0.003,-0.16581 -4.0282,-3.68805 -6.02723,-5.26664 l -1.13507,-0.89633 -2.5999,0.85218 c -1.42994,0.4687 -3.71713,1.39648 -5.08264,2.06173 l -2.48274,1.20954 1.5875,1.35897 c 0.87312,0.74742 2.46062,2.19966 3.52777,3.22718 l 1.94028,1.86823 1.6316,-0.81581 c 0.89738,-0.4487 3.20799,-1.40597 5.1347,-2.12727 z m -14.54358,-6.96786 c 1.12455,-0.5644 3.23527,-1.53016 4.69048,-2.14615 1.45521,-0.61599 2.67226,-1.14306 2.70457,-1.17127 0.0727,-0.0635 -4.2787,-3.16536 -6.34541,-4.52322 l -1.52417,-1.00141 -2.93168,1.12369 c -1.61243,0.61803 -3.84358,1.5414 -4.95812,2.05192 l -2.02644,0.92822 0.65539,0.43481 c 0.36046,0.23915 2.1464,1.53005 3.96875,2.86867 1.82235,1.33861 3.4053,2.43994 3.51767,2.44739 0.11237,0.007 1.1244,-0.44825 2.24896,-1.01265 z m -12.04041,-7.66818 c 0.76178,-0.41628 2.84357,-1.39214 4.6262,-2.16857 1.78263,-0.77643 3.24018,-1.47764 3.23899,-1.55823 -0.001,-0.0806 -1.84257,-1.36249 -4.09195,-2.84866 l -4.0898,-2.70213 -4.70544,1.88686 c -2.58799,1.03777 -4.76497,1.93878 -4.83774,2.00224 -0.0728,0.0635 0.27277,0.43033 0.76784,0.81527 0.83262,0.6474 7.47865,5.26996 7.63669,5.31161 0.0386,0.0102 0.69343,-0.32211 1.45521,-0.73839 z M 88.9075,153.0024 c 0.86254,-0.41323 2.90694,-1.27643 4.54313,-1.91823 1.63618,-0.64181 2.97564,-1.24633 2.97656,-1.3434 9.3e-4,-0.0971 -1.04012,-0.98244 -2.31342,-1.96752 -1.27331,-0.98508 -2.9878,-2.36564 -3.80998,-3.06791 l -1.49487,-1.27685 -4.72284,1.89436 c -2.59756,1.04191 -4.78236,1.94804 -4.85512,2.01363 -0.30189,0.27214 7.18834,6.41443 7.82446,6.41636 0.15611,4.8e-4 0.98955,-0.33722 1.85208,-0.75044 z m -9.37908,-9.52439 c 2.56018,-0.86361 6.47221,-2.49126 6.81751,-2.83651 0.0569,-0.0569 -0.37625,-0.7316 -0.96263,-1.49929 -0.58637,-0.76769 -1.51357,-2.11017 -2.06044,-2.98329 -0.54688,-0.87313 -1.02601,-1.62669 -1.06475,-1.67459 -0.0387,-0.0479 -1.5989,0.44325 -3.46703,1.09146 -1.86812,0.64821 -4.25309,1.33035 -5.29993,1.51587 l -1.90334,0.33731 0.55049,1.08477 c 0.8044,1.5851 3.95528,5.97955 4.28742,5.97955 0.0511,0 1.4473,-0.45688 3.1027,-1.01528 z m 119.66943,-6.28907 c 0.2476,-0.095 0.41852,-0.47184 0.41852,-0.92272 0,-0.60077 -0.22295,-0.90286 -1.05308,-1.4269 -0.57919,-0.36563 -1.10284,-0.66478 -1.16365,-0.66478 -0.0608,0 -3.54577,-1.67836 -7.74432,-3.7297 -11.39392,-5.56685 -21.90241,-10.62334 -24.41693,-11.74897 l -2.23111,-0.99876 c -0.62983,0.0308 -1.25968,1.11577 -1.16154,1.54917 0.0158,0.0698 3.00347,1.47223 6.56201,3.15926 9.40815,4.4602 29.23098,14.20938 30.32708,14.91534 0.0245,0.0158 0.23284,-0.0436 0.46302,-0.13194 z M 72.79751,133.79475 c 2.13789,-0.45028 6.00275,-1.64383 7.02876,-2.17063 0.40018,-0.20547 0.7276,-0.54732 0.7276,-0.75966 0,-0.41954 -1.27088,-4.92816 -1.43555,-5.09283 -0.0554,-0.0555 -0.91599,0.15946 -1.91232,0.47756 -1.33319,0.42566 -2.73716,0.61432 -5.31723,0.7145 -1.92815,0.0749 -3.50573,0.16966 -3.50573,0.21064 0,0.46221 0.8918,4.54735 1.22494,5.61115 0.49451,1.57912 0.49028,1.57778 3.18953,1.00927 z m 76.87214,-10.26969 c -0.36123,-1.6193 -0.18506,-5.55018 0.3172,-7.0776 0.52604,-1.59975 1.60839,-3.46975 3.05138,-5.27192 1.11065,-1.38712 3.82931,-3.45933 4.5385,-3.45933 0.27503,0 0.60298,-0.1581 0.50006,-0.20779 -23.81052,-11.4943 0,0 -23.7711,-11.428219 -0.0955,0.003 -0.51707,0.49081 -0.93675,1.08378 -0.93056,1.3148 -2.13034,2.08326 -3.25462,2.08458 -1.98481,0.002 -2.64824,-0.7574 -4.47269,-5.12201 -0.80673,-1.92991 -1.12547,-2.41053 -1.80116,-2.71592 -0.45154,-0.20408 -1.03057,-0.51811 -1.28675,-0.69784 -0.38777,-0.27207 -0.70709,-0.2005 -1.90697,0.42736 -2.14029,1.11997 -3.95344,3.0836 -5.23455,5.66898 -1.00353,2.02521 -1.11063,2.43874 -1.20346,4.646829 -0.0798,1.8995 0.005,2.70996 0.39023,3.74671 0.43728,1.17549 0.66852,1.41653 2.07507,2.16294 32.99561,17.00803 0,0 32.9956,17.00802 0.1055,0.006 0.1055,-0.37562 0,-0.84857 z M 75.3945,123.29542 c 0.58208,-0.14504 1.5639,-0.46525 2.18182,-0.71157 0.92653,-0.36933 1.12366,-0.57102 1.12448,-1.15043 l 9.9e-4,-0.70259 -2.05052,0.14016 c -2.61946,0.17905 -4.64563,-0.24617 -6.50332,-1.36481 l -1.4694,-0.88482 -0.15756,1.49274 c -0.0867,0.821 -0.20487,1.796 -0.26269,2.16665 -0.14153,0.90718 0.10809,1.2379 1.05164,1.39329 1.07419,0.17691 4.78074,-0.0537 6.08456,-0.37862 z m 85.71104,0.31837 c -6.08684,-2.27022 -2.06889,-9.77969 2.9173,-9.5554 -5.57387,-2.97834 -10.61719,9.10375 -2.9173,9.5554 z m -28.04133,-2.70306 c 0.12046,-0.12046 -5.46755,-3.14035 -5.81091,-3.14035 -0.0671,0 -0.3722,0.49041 -0.67799,1.08981 -0.68572,1.34411 -0.54864,1.51011 1.71816,2.08073 1.58216,0.39828 4.35985,0.3807 4.77074,-0.0302 z m -54.69315,-3.5717 c 0.45743,-0.12259 0.59531,-0.35236 0.59531,-0.99206 0,-0.69313 -0.23929,-1.01941 -1.42918,-1.94873 -1.49297,-1.16602 -3.74099,-3.9116 -4.22546,-5.16067 -0.15521,-0.40019 -0.36042,-0.72761 -0.45601,-0.72761 -0.23084,0 -1.90415,3.20433 -2.61019,4.99842 l -0.5614,1.42654 0.60623,0.64912 c 0.70278,0.75251 1.85618,1.39894 2.98747,1.67435 0.99262,0.24165 4.29718,0.29397 5.09323,0.0806 z m 1.38906,-7.34773 c 0,-0.2039 -0.44648,-0.6485 -0.99219,-0.98799 -1.53097,-0.95243 -1.60465,-0.91101 -0.47547,0.26733 1.10302,1.15102 1.46766,1.33007 1.46766,0.72066 z M 132.0651,92.238091 c 1.65187,-2.627 2.2818,-3.84204 2.09086,-4.03298 -0.16723,-0.16723 -5.98797,0.38378 -6.19016,0.58598 -0.0723,0.0723 0.42229,1.3246 1.09913,2.78286 0.67683,1.45826 1.23061,2.79361 1.23061,2.96745 0,0.44274 0.23599,0.13557 1.76956,-2.30331 z m 15.92006,-4.69636 c 0.59955,-0.98226 0.98691,-1.78593 0.86081,-1.78593 -0.1261,0 -1.05783,0.18711 -2.07052,0.4158 l -1.84124,0.41581 0.65542,1.83883 c 0.74096,2.07882 0.54194,2.15231 2.39553,-0.88451 z"
         id="path8"
         sodipodi:nodetypes="sssssscsssssssssssssssssssssssssssccsssssscssssssssssssssscsssssssssssscssssssssssssscsssssssssssssscssscssssssscsssscsssssssssssssssscssssssssscssscssssscsssssscsssscsssssssscsssssssssssssssssscsssscccsssssssccsccssscssscsssscssssssssssssssssssscssssscssssssssscsssssssssssssssssssssssssssscsssscsscsssssssscssssscsssssssssssscsscscsscsscsssssscsscsscssscscsssssssssscssssssssssscssssssssscssssssscscsssssssscscsssssccccssssscssccssscccsssssscssssscssccssssssssssssscss"
         inkscape:label="Outline"
         transform="translate(30.492522,-12.905323)" /></g></g></svg>
