<?xml version="1.0" encoding="UTF-8"?>
<svg xmlns="http://www.w3.org/2000/svg" xmlns:xlink="http://www.w3.org/1999/xlink" width="42.622pt" height="57.091pt" viewBox="0 0 42.622 57.091" version="1.1">
<defs>
<clipPath id="clip1">
  <path d="M 12 26 L 38 26 L 38 57.089844 L 12 57.089844 Z M 12 26 "/>
</clipPath>
<clipPath id="clip2">
  <path d="M 24 14 L 42.621094 14 L 42.621094 43 L 24 43 Z M 24 14 "/>
</clipPath>
<clipPath id="clip3">
  <path d="M 35 25 L 42.621094 25 L 42.621094 27 L 35 27 Z M 35 25 "/>
</clipPath>
<clipPath id="clip4">
  <path d="M 0 0 L 32 0 L 32 57.089844 L 0 57.089844 Z M 0 0 "/>
</clipPath>
</defs>
<g id="surface1">
<path style="fill:none;stroke-width:0.3985;stroke-linecap:butt;stroke-linejoin:miter;stroke:rgb(0%,0%,0%);stroke-opacity:1;stroke-miterlimit:10;" d="M 31.179906 51.931063 L 31.179906 38.872469 L 18.426 31.852938 " transform="matrix(1,0,0,-1,0.199,56.892)"/>
<path style="fill:none;stroke-width:0.797;stroke-linecap:butt;stroke-linejoin:miter;stroke:rgb(0%,0%,0%);stroke-opacity:1;stroke-miterlimit:10;" d="M 15.3635 37.899813 L 15.3635 18.794344 " transform="matrix(1,0,0,-1,0.199,56.892)"/>
<path style="fill:none;stroke-width:0.797;stroke-linecap:butt;stroke-linejoin:miter;stroke:rgb(0%,0%,0%);stroke-opacity:1;stroke-miterlimit:10;" d="M 18.426 37.899813 L 18.426 18.794344 " transform="matrix(1,0,0,-1,0.199,56.892)"/>
<g clip-path="url(#clip1)" clip-rule="nonzero">
<path style="fill:none;stroke-width:0.3985;stroke-linecap:butt;stroke-linejoin:miter;stroke:rgb(0%,0%,0%);stroke-opacity:1;stroke-miterlimit:10;" d="M 18.426 24.837313 L 31.179906 17.821688 L 31.179906 4.763094 " transform="matrix(1,0,0,-1,0.199,56.892)"/>
</g>
<path style=" stroke:none;fill-rule:nonzero;fill:rgb(0%,0%,0%);fill-opacity:1;" d="M 23.199219 34.570312 L 24.367188 32.441406 L 27.941406 37.175781 L 22.027344 36.695312 Z M 23.199219 34.570312 "/>
<path style="fill:none;stroke-width:0.3985;stroke-linecap:butt;stroke-linejoin:miter;stroke:rgb(0%,0%,0%);stroke-opacity:1;stroke-miterlimit:10;" d="M 15.3635 28.345125 L 5.468969 28.345125 " transform="matrix(1,0,0,-1,0.199,56.892)"/>
<g clip-path="url(#clip2)" clip-rule="nonzero">
<path style="fill:none;stroke-width:0.797;stroke-linecap:butt;stroke-linejoin:miter;stroke:rgb(0%,0%,0%);stroke-opacity:1;stroke-miterlimit:10;" d="M 38.836156 30.899813 L 35.64475 25.794344 L 42.023656 25.794344 Z M 38.836156 30.899813 " transform="matrix(1,0,0,-1,0.199,56.892)"/>
</g>
<g clip-path="url(#clip3)" clip-rule="nonzero">
<path style="fill:none;stroke-width:0.797;stroke-linecap:butt;stroke-linejoin:miter;stroke:rgb(0%,0%,0%);stroke-opacity:1;stroke-miterlimit:10;" d="M 42.023656 30.899813 L 35.64475 30.899813 " transform="matrix(1,0,0,-1,0.199,56.892)"/>
</g>
<path style="fill:none;stroke-width:0.3985;stroke-linecap:butt;stroke-linejoin:miter;stroke:rgb(0%,0%,0%);stroke-opacity:1;stroke-miterlimit:10;" d="M 31.179906 42.380281 L 38.836156 42.380281 L 38.836156 30.899813 " transform="matrix(1,0,0,-1,0.199,56.892)"/>
<path style="fill-rule:nonzero;fill:rgb(0%,0%,0%);fill-opacity:1;stroke-width:0.3985;stroke-linecap:butt;stroke-linejoin:miter;stroke:rgb(0%,0%,0%);stroke-opacity:1;stroke-miterlimit:10;" d="M 32.371313 42.380281 C 32.371313 43.036531 31.840062 43.567781 31.179906 43.567781 C 30.523656 43.567781 29.992406 43.036531 29.992406 42.380281 C 29.992406 41.720125 30.523656 41.188875 31.179906 41.188875 C 31.840062 41.188875 32.371313 41.720125 32.371313 42.380281 Z M 32.371313 42.380281 " transform="matrix(1,0,0,-1,0.199,56.892)"/>
<path style="fill:none;stroke-width:0.3985;stroke-linecap:butt;stroke-linejoin:miter;stroke:rgb(0%,0%,0%);stroke-opacity:1;stroke-miterlimit:10;" d="M 31.179906 14.313875 L 38.836156 14.313875 L 38.836156 25.794344 " transform="matrix(1,0,0,-1,0.199,56.892)"/>
<path style="fill-rule:nonzero;fill:rgb(0%,0%,0%);fill-opacity:1;stroke-width:0.3985;stroke-linecap:butt;stroke-linejoin:miter;stroke:rgb(0%,0%,0%);stroke-opacity:1;stroke-miterlimit:10;" d="M 32.371313 14.313875 C 32.371313 14.974031 31.840062 15.505281 31.179906 15.505281 C 30.523656 15.505281 29.992406 14.974031 29.992406 14.313875 C 29.992406 13.657625 30.523656 13.126375 31.179906 13.126375 C 31.840062 13.126375 32.371313 13.657625 32.371313 14.313875 Z M 32.371313 14.313875 " transform="matrix(1,0,0,-1,0.199,56.892)"/>
<g clip-path="url(#clip4)" clip-rule="nonzero">
<path style="fill:none;stroke-width:0.3985;stroke-linecap:butt;stroke-linejoin:miter;stroke:rgb(0%,0%,0%);stroke-opacity:1;stroke-miterlimit:10;" d="M 31.179906 51.731844 L 31.179906 56.692781 M 5.668188 28.345125 L 0.00021875 28.345125 M 31.179906 4.962313 L 31.179906 0.001375 " transform="matrix(1,0,0,-1,0.199,56.892)"/>
</g>
</g>
</svg>
